<svg width="800" height="600" xmlns="http://www.w3.org/2000/svg">
  <defs>
    <linearGradient id="grad1" x1="0%" y1="0%" x2="100%" y2="100%">
      <stop offset="0%" style="stop-color:#0B9D6E;stop-opacity:1" />
      <stop offset="100%" style="stop-color:#08B260;stop-opacity:1" />
    </linearGradient>
  </defs>
  <rect width="100%" height="100%" fill="url(#grad1)"/>
  <rect x="50" y="50" width="700" height="500" fill="#0B9D6E" stroke="#08B260" stroke-width="3" rx="10"/>
  <g>
    <rect x="100" y="100" width="80" height="80" fill="#0E4D3A" stroke="#0B3D2E" stroke-width="2"/>
    <rect x="220" y="100" width="80" height="80" fill="#0E4D3A" stroke="#0B3D2E" stroke-width="2"/>
    <rect x="340" y="100" width="80" height="80" fill="#0E4D3A" stroke="#0B3D2E" stroke-width="2"/>
    <rect x="460" y="100" width="80" height="80" fill="#0E4D3A" stroke="#0B3D2E" stroke-width="2"/>
    <rect x="580" y="100" width="80" height="80" fill="#0E4D3A" stroke="#0B3D2E" stroke-width="2"/>
    <rect x="100" y="220" width="80" height="80" fill="#0E4D3A" stroke="#0B3D2E" stroke-width="2"/>
    <rect x="220" y="220" width="80" height="80" fill="#0E4D3A" stroke="#0B3D2E" stroke-width="2"/>
    <rect x="340" y="220" width="80" height="80" fill="#0E4D3A" stroke="#0B3D2E" stroke-width="2"/>
    <rect x="460" y="220" width="80" height="80" fill="#0E4D3A" stroke="#0B3D2E" stroke-width="2"/>
    <rect x="580" y="220" width="80" height="80" fill="#0E4D3A" stroke="#0B3D2E" stroke-width="2"/>
    <rect x="100" y="340" width="80" height="80" fill="#0E4D3A" stroke="#0B3D2E" stroke-width="2"/>
    <rect x="220" y="340" width="80" height="80" fill="#0E4D3A" stroke="#0B3D2E" stroke-width="2"/>
    <rect x="340" y="340" width="80" height="80" fill="#0E4D3A" stroke="#0B3D2E" stroke-width="2"/>
    <rect x="460" y="340" width="80" height="80" fill="#0E4D3A" stroke="#0B3D2E" stroke-width="2"/>
    <rect x="580" y="340" width="80" height="80" fill="#0E4D3A" stroke="#0B3D2E" stroke-width="2"/>
    <rect x="100" y="460" width="80" height="80" fill="#0E4D3A" stroke="#0B3D2E" stroke-width="2"/>
    <rect x="220" y="460" width="80" height="80" fill="#0E4D3A" stroke="#0B3D2E" stroke-width="2"/>
    <rect x="340" y="460" width="80" height="80" fill="#0E4D3A" stroke="#0B3D2E" stroke-width="2"/>
    <rect x="460" y="460" width="80" height="80" fill="#0E4D3A" stroke="#0B3D2E" stroke-width="2"/>
    <rect x="580" y="460" width="80" height="80" fill="#0E4D3A" stroke="#0B3D2E" stroke-width="2"/>
  </g>
  <text x="400" y="280" font-size="42" font-family="Arial, sans-serif" fill="#F4C430" font-weight="bold" text-anchor="middle">EcoPower</text>
  <text x="400" y="330" font-size="38" font-family="Arial, sans-serif" fill="#FFFFFF" font-weight="bold" text-anchor="middle">400W</text>
</svg>
