<svg width="800" height="600" xmlns="http://www.w3.org/2000/svg">
  <defs>
    <linearGradient id="grad3" x1="0%" y1="0%" x2="100%" y2="100%">
      <stop offset="0%" style="stop-color:#0B9D6E;stop-opacity:1" />
      <stop offset="100%" style="stop-color:#08B260;stop-opacity:1" />
    </linearGradient>
  </defs>
  <rect width="100%" height="100%" fill="url(#grad3)"/>
  <rect x="50" y="50" width="700" height="500" fill="#0B9D6E" stroke="#08B260" stroke-width="3" rx="10"/>
  <g>
    <rect x="90" y="90" width="90" height="90" fill="#0E4D3A" stroke="#0B3D2E" stroke-width="2"/>
    <rect x="210" y="90" width="90" height="90" fill="#0E4D3A" stroke="#0B3D2E" stroke-width="2"/>
    <rect x="330" y="90" width="90" height="90" fill="#0E4D3A" stroke="#0B3D2E" stroke-width="2"/>
    <rect x="450" y="90" width="90" height="90" fill="#0E4D3A" stroke="#0B3D2E" stroke-width="2"/>
    <rect x="570" y="90" width="90" height="90" fill="#0E4D3A" stroke="#0B3D2E" stroke-width="2"/>
    <rect x="90" y="210" width="90" height="90" fill="#0E4D3A" stroke="#0B3D2E" stroke-width="2"/>
    <rect x="210" y="210" width="90" height="90" fill="#0E4D3A" stroke="#0B3D2E" stroke-width="2"/>
    <rect x="330" y="210" width="90" height="90" fill="#0E4D3A" stroke="#0B3D2E" stroke-width="2"/>
    <rect x="450" y="210" width="90" height="90" fill="#0E4D3A" stroke="#0B3D2E" stroke-width="2"/>
    <rect x="570" y="210" width="90" height="90" fill="#0E4D3A" stroke="#0B3D2E" stroke-width="2"/>
    <rect x="90" y="330" width="90" height="90" fill="#0E4D3A" stroke="#0B3D2E" stroke-width="2"/>
    <rect x="210" y="330" width="90" height="90" fill="#0E4D3A" stroke="#0B3D2E" stroke-width="2"/>
    <rect x="330" y="330" width="90" height="90" fill="#0E4D3A" stroke="#0B3D2E" stroke-width="2"/>
    <rect x="450" y="330" width="90" height="90" fill="#0E4D3A" stroke="#0B3D2E" stroke-width="2"/>
    <rect x="570" y="330" width="90" height="90" fill="#0E4D3A" stroke="#0B3D2E" stroke-width="2"/>
    <rect x="90" y="450" width="90" height="90" fill="#0E4D3A" stroke="#0B3D2E" stroke-width="2"/>
    <rect x="210" y="450" width="90" height="90" fill="#0E4D3A" stroke="#0B3D2E" stroke-width="2"/>
    <rect x="330" y="450" width="90" height="90" fill="#0E4D3A" stroke="#0B3D2E" stroke-width="2"/>
    <rect x="450" y="450" width="90" height="90" fill="#0E4D3A" stroke="#0B3D2E" stroke-width="2"/>
    <rect x="570" y="450" width="90" height="90" fill="#0E4D3A" stroke="#0B3D2E" stroke-width="2"/>
  </g>
  <text x="400" y="280" font-size="42" font-family="Arial, sans-serif" fill="#F4C430" font-weight="bold" text-anchor="middle">SolarPro</text>
  <text x="400" y="330" font-size="38" font-family="Arial, sans-serif" fill="#FFFFFF" font-weight="bold" text-anchor="middle">500W</text>
</svg>
